{"glyphs":{"0":{"ha":950,"x_min":0,"x_max":0,"o":"m 475 -22 b 819 424 680 -22 819 175 l 819 585 b 475 1045 819 848 680 1045 b 132 585 270 1045 132 848 l 132 424 b 475 -22 132 175 270 -22 z m 234 512 b 475 950 234 797 322 950 b 716 512 629 950 716 797 b 475 73 716 227 629 73 b 234 512 322 73 234 227 z "},"1":{"ha":556,"x_min":0,"x_max":0,"o":"m 322 0 l 424 0 l 424 921 b 322 1023 424 1023 358 1023 b 132 958 263 1023 132 958 l 132 870 l 322 936 z "},"2":{"ha":841,"x_min":0,"x_max":0,"o":"m 132 88 l 132 0 l 709 0 l 709 88 l 234 88 b 709 738 231 256 706 512 b 395 1045 706 965 596 1045 b 132 987 253 1045 129 987 l 154 892 b 395 958 156 895 291 958 b 607 738 494 958 604 914 b 132 88 604 541 129 300 z "},"3":{"ha":841,"x_min":0,"x_max":0,"o":"m 395 -15 b 709 292 599 -15 709 66 b 541 519 709 395 643 519 b 702 738 643 519 702 636 b 395 1045 702 965 599 1045 b 132 987 256 1045 132 987 l 154 899 b 395 958 154 899 292 958 b 599 738 497 958 599 914 b 234 556 599 526 234 556 l 234 475 b 607 292 234 475 607 526 b 395 73 607 117 497 73 b 154 132 292 73 154 132 l 132 44 b 395 -15 132 44 256 -15 z "},"4":{"ha":936,"x_min":0,"x_max":0,"o":"m 577 0 l 680 0 l 680 300 l 804 300 l 804 380 l 680 380 l 680 1023 l 629 1023 b 475 921 553 1023 523 994 l 132 380 l 132 300 l 577 300 z m 241 380 l 577 921 l 577 380 z "},"5":{"ha":841,"x_min":0,"x_max":0,"o":"m 395 -15 b 709 292 596 -15 706 66 b 256 585 706 409 692 585 l 263 936 l 694 936 l 694 1023 l 168 1023 l 154 504 b 607 292 355 504 604 504 b 395 73 604 117 494 73 b 154 139 291 73 156 136 l 132 44 b 395 -15 129 44 253 -15 z "},"6":{"ha":863,"x_min":0,"x_max":0,"o":"m 431 -22 b 731 307 692 -22 728 146 b 431 614 728 512 633 614 b 234 541 333 614 282 585 b 490 950 232 806 246 950 b 694 921 589 950 692 921 l 716 1009 b 490 1045 713 1009 611 1045 b 132 548 180 1045 129 848 l 132 461 b 431 -22 129 80 209 -22 z m 234 307 b 431 534 231 461 295 534 b 636 307 582 534 633 462 b 431 66 633 161 582 66 b 234 307 297 66 231 161 z "},"7":{"ha":833,"x_min":0,"x_max":0,"o":"m 300 0 l 402 0 l 687 921 b 585 1023 719 1023 687 1023 l 132 1023 l 132 936 l 585 936 z "},"8":{"ha":892,"x_min":0,"x_max":0,"o":"m 446 -15 b 760 278 648 -15 757 51 b 592 519 757 380 684 519 b 746 738 684 519 743 636 b 446 1045 743 965 648 1045 b 146 738 238 1045 143 965 b 300 519 143 636 199 519 b 132 278 199 519 129 380 b 446 -15 129 51 238 -15 z m 227 278 b 446 468 224 446 348 468 b 665 278 509 468 662 446 b 446 73 662 102 545 73 b 227 278 341 73 224 102 z m 241 738 b 446 958 238 914 341 958 b 651 738 545 958 648 914 b 446 556 648 586 509 556 b 241 738 377 556 238 573 z "},"9":{"ha":863,"x_min":0,"x_max":0,"o":"m 387 -22 b 731 439 692 -22 728 175 l 731 599 b 439 1045 728 943 655 1045 b 132 716 173 1045 129 877 b 439 424 129 512 231 424 b 629 482 531 424 575 439 b 387 73 624 218 626 73 b 168 102 285 73 171 101 l 146 15 b 387 -22 143 15 260 -22 z m 227 716 b 439 958 224 863 282 958 b 629 716 567 958 626 863 b 439 504 626 563 569 504 b 227 716 282 504 224 561 z "}," ":{"ha":409,"x_min":0,"x_max":0,"o":""}," ":{"ha":409,"x_min":0,"x_max":0,"o":""},"A":{"ha":1053,"x_min":0,"x_max":0,"o":"m 132 0 l 241 0 l 316 241 l 737 241 l 811 0 l 921 0 l 585 1023 l 468 1023 z m 344 329 l 526 914 l 709 329 z "},"B":{"ha":928,"x_min":0,"x_max":0,"o":"m 132 0 l 409 0 b 797 307 749 0 800 102 b 643 541 800 461 690 519 b 746 768 690 570 749 614 b 409 1023 749 1000 595 1023 l 132 1023 z m 234 95 l 234 475 l 409 475 b 694 307 646 475 697 409 b 409 95 697 205 697 102 z m 234 563 l 234 928 l 409 928 b 643 768 595 928 646 870 b 409 563 646 665 595 563 z "},"C":{"ha":928,"x_min":0,"x_max":0,"o":"m 526 -22 b 797 29 646 -22 800 29 l 775 117 b 526 73 772 115 630 73 b 234 461 427 73 237 110 l 234 563 b 526 943 237 870 427 943 b 775 899 630 943 772 901 l 797 987 b 526 1038 800 987 646 1038 b 132 563 346 1038 135 921 l 132 461 b 526 -22 135 51 346 -22 z "},"D":{"ha":936,"x_min":0,"x_max":0,"o":"m 132 0 l 409 0 b 804 475 595 0 807 66 l 804 577 b 409 1023 807 936 595 1023 l 132 1023 z m 234 95 l 234 928 l 409 928 b 702 577 515 928 705 885 l 702 475 b 409 95 705 124 515 95 z "},"E":{"ha":789,"x_min":0,"x_max":0,"o":"m 234 0 l 658 0 l 658 88 l 234 88 l 234 475 l 607 475 l 607 563 l 234 563 l 234 936 l 658 936 l 658 1023 l 234 1023 b 132 936 186 1023 135 987 l 132 88 b 234 0 135 22 186 0 z "},"F":{"ha":789,"x_min":0,"x_max":0,"o":"m 132 936 l 132 0 l 234 0 l 234 475 l 607 475 l 607 563 l 234 563 l 234 936 l 658 936 l 658 1023 l 234 1023 b 132 936 186 1023 135 987 z "},"G":{"ha":980,"x_min":0,"x_max":0,"o":"m 490 -22 b 848 300 697 -22 851 51 l 848 526 l 541 526 l 541 439 l 746 439 l 746 329 b 490 73 749 102 595 73 b 234 453 390 73 237 154 l 234 556 b 490 950 237 870 332 950 b 768 914 629 950 765 915 l 797 987 b 490 1045 800 987 683 1045 b 132 585 288 1045 135 921 l 132 424 b 490 -22 135 102 288 -22 z "},"H":{"ha":928,"x_min":0,"x_max":0,"o":"m 694 0 l 797 0 l 797 1023 l 694 1023 l 694 563 l 234 563 l 234 1023 l 132 1023 l 132 0 l 234 0 l 234 475 l 694 475 z "},"I":{"ha":365,"x_min":0,"x_max":0,"o":"m 132 0 l 234 0 l 234 1023 l 132 1023 z "},"J":{"ha":724,"x_min":0,"x_max":0,"o":"m 322 0 b 592 256 493 0 595 110 l 592 1023 b 490 921 507 1023 493 994 l 490 307 b 322 88 493 154 427 88 b 132 102 237 88 200 96 l 132 15 b 322 0 200 9 237 0 z "},"K":{"ha":906,"x_min":0,"x_max":0,"o":"m 132 0 l 234 0 l 234 439 l 287 497 l 643 0 l 775 0 l 355 576 l 753 1023 l 621 1023 l 234 585 l 234 1023 l 132 1023 z "},"L":{"ha":775,"x_min":0,"x_max":0,"o":"m 132 921 l 132 0 l 643 0 l 643 88 l 234 88 l 234 1023 b 132 921 149 1023 135 994 z "},"M":{"ha":1140,"x_min":0,"x_max":0,"o":"m 132 0 l 234 0 l 234 826 l 534 285 l 607 285 l 906 826 l 906 0 l 1009 0 l 1009 1023 l 906 1023 l 570 439 l 234 1023 l 132 1023 z "},"N":{"ha":928,"x_min":0,"x_max":0,"o":"m 132 0 l 234 0 l 234 841 l 694 0 l 797 0 l 797 1023 l 694 1023 l 694 183 l 234 1023 l 132 1023 z "},"O":{"ha":980,"x_min":0,"x_max":0,"o":"m 490 -22 b 863 439 697 -22 863 102 l 863 570 b 490 1045 863 921 697 1045 b 117 570 288 1045 117 921 l 117 439 b 490 -22 117 102 288 -22 z m 219 468 l 219 541 b 490 950 219 870 390 950 b 760 541 595 950 760 870 l 760 468 b 490 73 760 154 595 73 b 219 468 390 73 219 154 z "},"P":{"ha":877,"x_min":0,"x_max":0,"o":"m 132 0 l 234 0 l 234 424 l 409 424 b 746 716 620 433 749 509 b 409 1023 749 949 595 1023 l 132 1023 z m 234 512 l 234 928 l 409 928 b 643 716 595 928 646 819 b 409 512 646 614 595 512 z "},"Q":{"ha":980,"x_min":0,"x_max":0,"o":"m 746 -102 l 848 -102 l 737 64 b 863 439 814 136 863 256 l 863 570 b 490 1045 863 921 697 1045 b 117 570 288 1045 117 921 l 117 439 b 490 -22 117 102 288 -22 b 667 16 554 -22 614 -10 z m 219 468 l 219 541 b 490 950 219 870 390 950 b 760 541 595 950 760 870 l 760 468 b 490 73 760 154 595 73 b 219 468 390 73 219 154 z "},"R":{"ha":877,"x_min":0,"x_max":0,"o":"m 132 0 l 234 0 l 234 475 l 439 475 l 614 0 l 746 0 l 541 475 b 746 768 646 475 749 614 b 409 1023 749 1000 595 1023 l 132 1023 z m 234 563 l 234 928 l 409 928 b 643 768 595 928 646 870 b 409 563 646 665 595 563 z "},"S":{"ha":855,"x_min":0,"x_max":0,"o":"m 461 0 b 724 292 614 -7 724 80 b 249 746 724 629 249 504 b 461 958 249 921 358 958 b 687 899 561 955 687 899 l 709 994 b 461 1045 709 994 599 1045 b 146 746 256 1045 146 972 b 614 292 146 417 614 526 b 461 95 614 205 563 95 b 154 146 358 95 154 146 l 132 51 b 461 0 132 51 292 7 z "},"T":{"ha":950,"x_min":0,"x_max":0,"o":"m 424 0 l 526 0 l 526 936 l 819 936 l 819 1023 l 132 1023 l 132 936 l 424 936 z "},"U":{"ha":921,"x_min":0,"x_max":0,"o":"m 461 0 b 789 256 629 0 789 110 l 789 1023 l 687 1023 l 687 307 b 461 88 687 154 563 88 b 234 307 358 88 234 154 l 234 1023 l 132 1023 l 132 256 b 461 0 132 110 292 0 z "},"V":{"ha":1045,"x_min":0,"x_max":0,"o":"m 453 0 l 585 0 l 914 1023 l 797 1023 l 519 110 l 241 1023 l 132 1023 z "},"W":{"ha":1484,"x_min":0,"x_max":0,"o":"m 936 0 l 1067 0 l 1352 1023 l 1243 1023 l 1001 110 l 797 1023 l 687 1023 l 468 110 l 241 1023 l 132 1023 l 402 0 l 534 0 l 740 804 z "},"X":{"ha":950,"x_min":0,"x_max":0,"o":"m 132 0 l 234 0 l 475 424 l 716 0 l 819 0 l 526 512 l 819 1023 l 716 1023 l 475 599 l 234 1023 l 132 1023 l 424 512 z "},"Y":{"ha":1038,"x_min":0,"x_max":0,"o":"m 468 461 l 468 0 l 570 0 l 570 461 l 906 1023 l 797 1023 l 519 570 l 241 1023 l 132 1023 z "},"Z":{"ha":928,"x_min":0,"x_max":0,"o":"m 132 88 l 132 0 l 797 0 l 797 88 l 234 88 l 797 936 l 797 1023 l 132 1023 l 132 936 l 694 936 z "},"a":{"ha":826,"x_min":0,"x_max":0,"o":"m 402 -22 b 592 95 482 -22 570 37 l 592 0 l 694 0 l 694 716 l 592 716 l 592 651 b 402 738 556 694 503 738 b 117 409 227 738 117 617 l 117 314 b 402 -22 117 105 227 -22 z m 219 336 l 219 387 b 402 651 219 566 285 651 b 592 409 512 651 592 592 l 592 314 b 402 66 592 154 512 66 b 219 336 285 66 219 156 z "},"b":{"ha":826,"x_min":0,"x_max":0,"o":"m 424 -22 b 694 300 599 -22 694 83 l 694 424 b 424 738 694 595 599 738 b 234 651 336 738 270 694 l 234 1075 l 132 1075 l 132 0 l 234 0 l 234 95 b 424 -22 256 37 344 -22 z m 234 307 l 234 461 b 424 651 234 579 308 651 b 592 387 541 651 592 544 l 592 336 b 424 66 592 135 541 66 b 234 307 308 66 234 167 z "},"c":{"ha":782,"x_min":0,"x_max":0,"o":"m 439 -22 b 651 22 563 -22 651 22 l 629 110 b 439 73 629 110 541 73 b 234 329 336 73 234 154 l 234 387 b 439 643 234 563 336 643 b 629 607 541 643 629 607 l 651 694 b 439 738 651 694 563 738 b 132 387 256 738 132 614 l 132 329 b 439 -22 132 102 256 -22 z "},"d":{"ha":826,"x_min":0,"x_max":0,"o":"m 402 -22 b 592 95 482 -22 570 37 l 592 0 l 694 0 l 694 1075 l 592 1075 l 592 651 b 402 738 556 694 490 738 b 132 424 227 738 132 595 l 132 300 b 402 -22 132 83 227 -22 z m 234 336 l 234 387 b 402 651 234 544 285 651 b 592 461 518 651 592 579 l 592 307 b 402 66 592 167 518 66 b 234 336 285 66 234 135 z "},"e":{"ha":797,"x_min":0,"x_max":0,"o":"m 132 409 l 132 336 b 446 -22 132 110 250 -22 b 651 22 621 -22 651 22 l 629 102 b 446 73 629 102 548 73 b 234 329 330 73 234 154 l 665 329 l 665 409 b 402 738 665 614 599 738 b 132 409 234 738 132 643 z m 234 409 b 402 643 234 563 270 643 b 570 409 526 643 570 563 z "},"f":{"ha":658,"x_min":0,"x_max":0,"o":"m 234 0 l 336 0 l 336 629 l 490 629 l 490 716 l 336 716 b 431 980 336 921 336 980 b 504 965 461 980 504 963 l 526 1038 b 387 1075 526 1039 461 1075 b 234 716 260 1075 234 978 l 132 716 l 132 629 l 234 629 z "},"g":{"ha":826,"x_min":0,"x_max":0,"o":"m 402 -322 b 694 -95 585 -322 694 -227 l 694 716 l 592 716 l 592 665 b 402 738 548 702 482 738 b 132 453 212 738 132 599 l 132 285 b 402 -7 132 124 205 -7 b 592 44 482 -7 547 15 l 592 -95 b 402 -234 592 -227 475 -234 b 234 -95 329 -234 234 -194 l 132 -95 b 402 -322 132 -194 227 -322 z m 234 322 l 234 417 b 409 643 234 577 304 643 b 592 512 490 643 576 596 l 592 205 b 409 80 573 127 490 80 b 234 322 304 80 234 154 z "},"h":{"ha":789,"x_min":0,"x_max":0,"o":"m 132 0 l 234 0 l 234 563 b 424 636 263 620 346 636 b 563 446 504 636 563 585 l 563 0 l 665 0 l 665 446 b 402 731 665 636 577 731 b 234 658 325 731 262 708 l 234 1075 l 132 1075 z "},"i":{"ha":365,"x_min":0,"x_max":0,"o":"m 132 0 l 234 0 l 234 716 l 132 716 z m 132 819 l 234 819 l 234 921 l 132 921 z "},"j":{"ha":570,"x_min":0,"x_max":0,"o":"m 285 -300 b 439 58 456 -300 439 -113 l 439 716 l 336 716 l 336 58 b 285 -197 336 -146 329 -197 b 161 -183 205 -197 161 -181 l 132 -256 b 285 -300 132 -257 212 -300 z m 336 819 l 439 819 l 439 921 l 336 921 z "},"k":{"ha":782,"x_min":0,"x_max":0,"o":"m 132 0 l 234 0 l 234 285 l 519 0 l 651 0 l 307 358 l 651 716 l 519 716 l 234 431 l 234 1075 l 132 1075 z "},"l":{"ha":365,"x_min":0,"x_max":0,"o":"m 132 0 l 234 0 l 234 1075 l 132 1075 z "},"m":{"ha":1082,"x_min":0,"x_max":0,"o":"m 132 0 l 241 0 l 235 579 b 365 629 266 626 319 629 b 490 512 417 629 490 611 l 490 0 l 592 0 l 592 576 b 724 629 623 624 677 629 b 848 512 775 629 848 611 l 848 0 l 950 0 l 950 563 b 724 731 950 713 826 731 b 579 637 645 731 607 699 b 365 731 544 719 447 731 b 234 652 292 731 260 703 l 234 716 l 132 716 z "},"n":{"ha":789,"x_min":0,"x_max":0,"o":"m 132 0 l 234 0 l 234 563 b 424 636 263 620 346 636 b 563 446 504 636 563 585 l 563 0 l 665 0 l 665 446 b 402 731 665 636 577 731 b 234 658 325 731 262 708 l 227 716 l 132 716 z "},"o":{"ha":826,"x_min":0,"x_max":0,"o":"m 417 -22 b 702 278 592 -22 702 102 l 702 439 b 417 738 702 614 592 738 b 124 439 234 738 124 614 l 124 278 b 417 -22 124 102 234 -22 z m 227 322 l 227 395 b 417 643 227 585 314 643 b 599 395 519 643 599 585 l 599 322 b 417 66 599 132 519 66 b 227 322 314 66 227 132 z "},"p":{"ha":826,"x_min":0,"x_max":0,"o":"m 424 738 b 234 621 344 738 256 680 l 234 716 l 132 716 l 132 -358 l 234 -358 l 234 66 b 424 -22 270 22 336 -22 b 694 292 599 -22 694 121 l 694 417 b 424 738 694 633 599 738 z m 234 256 l 234 409 b 424 651 234 550 308 651 b 592 380 541 651 592 582 l 592 329 b 424 66 592 173 541 66 b 234 256 308 66 234 137 z "},"q":{"ha":826,"x_min":0,"x_max":0,"o":"m 402 738 b 132 417 227 738 132 633 l 132 292 b 402 -22 132 121 227 -22 b 592 66 490 -22 556 22 l 592 -358 l 694 -358 l 694 716 l 592 716 l 592 621 b 402 738 570 680 482 738 z m 234 329 l 234 380 b 402 651 234 582 285 651 b 592 409 518 651 592 550 l 592 256 b 402 66 592 137 518 66 b 234 329 285 66 234 173 z "},"r":{"ha":570,"x_min":0,"x_max":0,"o":"m 132 0 l 234 0 l 234 548 b 439 621 260 614 385 621 l 439 731 b 234 636 336 731 262 702 l 227 716 l 132 716 z "},"s":{"ha":775,"x_min":0,"x_max":0,"o":"m 161 102 l 139 15 b 395 -15 139 15 270 -15 b 629 205 599 -15 629 101 b 234 526 629 389 234 395 b 380 643 234 594 285 643 b 607 614 490 643 607 614 l 629 702 b 380 731 629 702 512 731 b 139 512 175 731 139 615 b 534 190 139 330 534 322 b 395 73 534 123 490 73 b 161 102 285 73 161 102 z "},"t":{"ha":599,"x_min":0,"x_max":0,"o":"m 336 0 l 468 0 l 468 95 b 336 154 373 88 336 95 l 336 629 l 468 629 l 468 716 l 336 716 l 336 921 l 234 921 l 234 716 l 132 716 l 132 629 l 234 629 l 234 102 b 336 0 234 51 285 0 z "},"u":{"ha":789,"x_min":0,"x_max":0,"o":"m 658 716 l 556 716 l 556 154 b 365 80 526 96 443 80 b 227 270 285 80 227 132 l 227 716 l 124 716 l 124 270 b 387 -15 124 80 212 -15 b 556 58 465 -15 528 9 l 563 0 l 658 0 z "},"v":{"ha":877,"x_min":0,"x_max":0,"o":"m 373 0 l 504 0 l 746 716 l 629 716 l 439 110 l 249 716 l 132 716 z "},"w":{"ha":1206,"x_min":0,"x_max":0,"o":"m 336 0 l 453 0 l 599 526 l 746 0 l 863 0 l 1075 716 l 965 716 l 804 110 l 651 716 l 548 716 l 395 110 l 241 716 l 132 716 z "},"x":{"ha":877,"x_min":0,"x_max":0,"o":"m 132 0 l 256 0 l 439 285 l 621 0 l 746 0 l 504 358 l 746 716 l 621 716 l 439 431 l 256 716 l 132 716 l 373 358 z "},"y":{"ha":892,"x_min":0,"x_max":0,"o":"m 307 -307 l 417 -307 l 519 0 l 760 716 l 643 716 l 461 110 l 256 716 l 132 716 l 409 0 z "},"z":{"ha":775,"x_min":0,"x_max":0,"o":"m 132 0 l 643 0 l 643 88 l 270 88 l 643 629 l 643 716 l 132 716 l 132 629 l 541 629 l 132 88 z "},".":{"ha":212,"x_min":0,"x_max":0,"o":"m 110 -7 b 168 58 168 -7 168 -7 b 110 117 168 117 168 117 b 44 58 44 117 44 117 b 110 -7 44 -7 44 -7 z "},",":{"ha":234,"x_min":0,"x_max":0,"o":"m 88 -7 l 44 -139 l 132 -139 b 190 58 187 19 190 35 b 124 124 190 88 173 124 b 51 58 69 124 51 88 b 88 -7 51 37 61 6 z "},":":{"ha":212,"x_min":0,"x_max":0,"o":"m 110 -7 b 168 58 168 -7 168 -7 b 110 117 168 117 168 117 b 44 58 44 117 44 117 b 110 -7 44 -7 44 -7 z m 44 665 b 110 599 44 599 44 599 b 168 665 168 599 168 599 b 110 724 168 724 168 724 b 44 665 44 724 44 724 z "},";":{"ha":234,"x_min":0,"x_max":0,"o":"m 124 599 b 183 665 183 599 183 599 b 124 724 183 724 183 724 b 58 665 58 724 58 724 b 124 599 58 599 58 599 z m 44 -139 l 132 -139 b 190 58 187 19 190 35 b 124 124 190 88 173 124 b 51 58 69 124 51 88 b 88 -7 51 37 61 6 z "},"!":{"ha":380,"x_min":0,"x_max":0,"o":"m 146 256 l 234 256 l 249 1096 l 132 1096 z m 139 0 l 241 0 l 241 102 l 139 102 z "},"?":{"ha":768,"x_min":0,"x_max":0,"o":"m 314 241 l 417 241 b 636 753 417 393 636 526 b 387 1023 636 835 592 1023 b 132 958 256 1023 132 959 l 161 870 b 387 928 161 870 256 928 b 541 768 490 928 541 833 b 314 241 541 526 314 471 z m 314 0 l 417 0 l 417 102 l 314 102 z "},"•":{"ha":497,"x_min":0,"x_max":0,"o":"m 249 329 b 365 453 314 329 365 380 b 249 570 365 519 314 570 b 132 453 175 570 132 519 b 249 329 132 380 175 329 z "},"*":{"ha":409,"x_min":0,"x_max":0,"o":"m 175 716 l 234 716 l 234 833 l 365 760 l 365 826 l 256 892 l 365 958 l 365 1023 l 234 950 l 234 1075 l 175 1075 l 175 950 l 44 1023 l 44 958 l 154 892 l 44 826 l 44 760 l 175 833 z "},"#":{"ha":826,"x_min":0,"x_max":0,"o":"m 431 0 l 534 0 l 577 285 l 716 285 l 731 380 l 592 380 l 629 592 l 768 592 l 782 687 l 643 687 l 687 972 l 585 972 l 541 687 l 351 687 l 395 972 l 292 972 l 249 687 l 110 687 l 95 592 l 234 592 l 197 380 l 58 380 l 44 285 l 183 285 l 139 0 l 241 0 l 285 285 l 475 285 z m 300 380 l 336 592 l 526 592 l 490 380 z "},"/":{"ha":782,"x_min":0,"x_max":0,"o":"m 132 -102 l 234 -102 l 651 1126 l 548 1126 z "},"\\":{"ha":782,"x_min":0,"x_max":0,"o":"m 548 -102 l 651 -102 l 234 1126 l 132 1126 z "},"-":{"ha":409,"x_min":0,"x_max":0,"o":"m 0 409 l 409 409 l 409 497 l 0 497 z "},"–":{"ha":599,"x_min":0,"x_max":0,"o":"m 44 409 l 556 409 l 556 504 l 44 504 z "},"_":{"ha":519,"x_min":0,"x_max":0,"o":"m -44 -110 l 563 -110 l 563 -22 l -44 -22 z "},"(":{"ha":431,"x_min":0,"x_max":0,"o":"m 285 -234 l 387 -234 b 146 409 387 -234 146 22 b 387 1060 146 795 387 1060 l 285 1060 b 44 409 285 1060 44 838 b 285 -234 44 -25 285 -234 z "},")":{"ha":431,"x_min":0,"x_max":0,"o":"m 44 -234 l 146 -234 b 387 409 146 -234 387 -25 b 146 1060 387 838 146 1060 l 44 1060 b 285 409 44 1060 285 795 b 44 -234 285 22 44 -234 z "},"{":{"ha":482,"x_min":0,"x_max":0,"o":"m 431 -219 l 431 -132 b 285 234 285 -132 285 -47 b 146 402 285 358 146 402 b 285 592 146 402 285 453 b 439 958 285 870 285 958 l 439 1045 b 183 592 234 1045 183 950 b 44 446 183 512 117 446 l 44 358 b 183 234 117 358 183 285 b 431 -219 183 -132 234 -219 z "},"}":{"ha":482,"x_min":0,"x_max":0,"o":"m 51 -132 l 51 -219 b 300 234 249 -219 300 -132 b 439 358 300 285 365 358 l 439 446 b 300 592 365 446 300 512 b 44 1045 300 950 249 1045 l 44 958 b 197 592 197 958 197 870 b 336 402 197 453 336 402 b 197 234 336 402 197 358 b 51 -132 197 -47 197 -132 z "},"[":{"ha":351,"x_min":0,"x_max":0,"o":"m 44 -219 l 300 -219 l 300 -132 l 146 -132 l 154 958 l 307 958 l 307 1045 l 51 1045 z "},"]":{"ha":351,"x_min":0,"x_max":0,"o":"m 307 -219 l 300 1045 l 44 1045 l 44 958 l 197 958 l 205 -132 l 51 -132 l 51 -219 z "},"‚":{"ha":234,"x_min":0,"x_max":0,"o":"m 88 -7 l 44 -139 l 132 -139 b 190 58 187 19 190 35 b 124 124 190 88 173 124 b 51 58 69 124 51 88 b 88 -7 51 37 61 6 z "},"„":{"ha":446,"x_min":0,"x_max":0,"o":"m 300 -7 l 256 -139 l 344 -139 b 402 58 399 19 402 35 b 336 124 402 88 385 124 b 263 58 281 124 263 88 b 300 -7 263 37 273 6 z m 44 -139 l 132 -139 b 190 58 187 19 190 35 b 124 124 190 88 173 124 b 51 58 69 124 51 88 b 88 -7 51 37 61 6 z "},"“":{"ha":446,"x_min":0,"x_max":0,"o":"m 146 943 l 190 1075 l 102 1075 b 44 877 47 917 44 901 b 110 811 44 848 61 811 b 183 877 165 811 183 848 b 146 943 183 899 173 930 z m 256 877 b 322 811 256 848 273 811 b 395 877 377 811 395 848 b 358 943 395 899 385 930 l 402 1075 l 314 1075 b 256 877 259 917 256 901 z "},"”":{"ha":446,"x_min":0,"x_max":0,"o":"m 300 943 l 256 811 l 344 811 b 402 1009 399 969 402 985 b 336 1075 402 1038 385 1075 b 263 1009 281 1075 263 1038 b 300 943 263 987 273 956 z m 44 811 l 132 811 b 190 1009 187 969 190 985 b 124 1075 190 1038 173 1075 b 51 1009 69 1075 51 1038 b 88 943 51 987 61 956 z "},"‘":{"ha":234,"x_min":0,"x_max":0,"o":"m 146 943 l 190 1075 l 102 1075 b 44 877 47 917 44 901 b 110 811 44 848 61 811 b 183 877 165 811 183 848 b 146 943 183 899 173 930 z "},"’":{"ha":234,"x_min":0,"x_max":0,"o":"m 88 943 l 44 811 l 132 811 b 190 1009 187 969 190 985 b 124 1075 190 1038 173 1075 b 51 1009 69 1075 51 1038 b 88 943 51 987 61 956 z "},"\"":{"ha":300,"x_min":0,"x_max":0,"o":"m 168 768 l 249 775 l 300 1023 l 205 1009 z m 0 768 l 80 775 l 132 1023 l 37 1009 z "},"'":{"ha":132,"x_min":0,"x_max":0,"o":"m 0 768 l 80 775 l 132 1023 l 37 1009 z "},"ƒ":{"ha":863,"x_min":0,"x_max":0,"o":"m 278 -175 b 461 183 387 -175 428 -99 l 497 497 l 658 497 l 658 585 l 504 585 b 629 958 556 950 570 958 b 702 943 658 958 702 943 l 731 1016 b 592 1053 731 1016 665 1053 b 402 585 475 1053 446 958 l 285 585 l 285 497 l 395 497 b 263 -73 329 -15 322 -73 b 168 -44 212 -73 168 -44 l 132 -124 b 278 -175 132 -124 205 -175 z "},"@":{"ha":1228,"x_min":0,"x_max":0,"o":"m 629 -175 b 906 -88 757 -175 817 -158 l 855 -15 b 629 -80 789 -66 731 -80 b 227 387 344 -80 227 132 b 599 811 227 643 344 811 b 1009 387 855 811 1010 643 b 811 285 1009 58 789 124 b 577 694 833 482 855 696 b 439 658 518 696 440 659 l 453 570 b 577 607 453 570 510 602 b 738 431 727 599 743 501 b 387 256 444 431 387 373 b 651 73 387 164 415 73 b 775 132 697 73 760 95 b 1096 387 928 -22 1096 132 b 599 899 1096 694 906 899 b 132 387 292 899 132 694 b 629 -175 132 80 292 -175 z m 468 256 b 738 358 469 308 481 370 b 614 146 738 212 724 146 b 468 256 548 146 469 175 z "},"&":{"ha":1001,"x_min":0,"x_max":0,"o":"m 402 -15 b 643 175 522 -15 570 37 l 768 0 l 870 0 l 694 249 l 811 512 l 724 512 l 643 329 l 453 570 b 643 819 519 607 643 665 b 439 1045 643 965 577 1045 b 234 819 322 1045 234 972 b 322 607 234 768 259 689 b 132 263 227 556 132 446 b 402 -15 132 132 212 -15 z m 227 263 b 373 534 227 424 303 485 l 592 249 b 402 73 526 124 497 73 b 227 263 298 73 227 127 z m 329 819 b 439 965 329 892 358 965 b 556 819 519 965 556 892 b 402 643 556 738 461 680 b 329 819 358 694 329 746 z "},"|":{"ha":365,"x_min":0,"x_max":0,"o":"m 132 -154 l 234 -154 l 234 1096 l 132 1096 z "},"$":{"ha":855,"x_min":0,"x_max":0,"o":"m 387 -102 l 468 -102 l 468 0 b 724 292 617 -4 724 83 b 468 561 724 469 592 519 l 468 958 b 687 899 567 952 687 899 l 709 994 b 468 1045 709 994 604 1044 l 468 1118 l 387 1118 l 387 1041 b 146 746 230 1025 146 943 b 387 481 146 577 268 523 l 387 101 b 154 146 284 114 154 146 l 132 51 b 387 6 132 51 249 19 z m 249 746 b 387 950 249 879 311 933 l 387 589 b 249 746 310 620 249 659 z m 468 95 l 468 452 b 614 292 550 420 614 380 b 468 95 614 206 566 101 z "},"€":{"ha":965,"x_min":0,"x_max":0,"o":"m 563 -22 b 833 7 683 -22 836 7 l 811 95 b 563 73 808 94 667 73 b 336 380 472 73 357 104 l 716 380 l 716 468 l 336 468 l 336 563 l 716 563 l 716 651 l 344 651 b 563 943 363 885 474 943 b 811 921 667 943 808 923 l 833 1009 b 563 1038 836 1009 683 1038 b 234 651 399 1038 260 940 l 132 651 l 132 563 l 234 563 l 234 468 l 132 468 l 132 380 l 234 380 b 563 -22 254 41 396 -22 z "},"+":{"ha":870,"x_min":0,"x_max":0,"o":"m 380 154 l 482 154 l 482 409 l 738 409 l 738 504 l 482 504 l 482 760 l 380 760 l 380 504 l 132 504 l 132 409 l 380 409 z "},"×":{"ha":760,"x_min":0,"x_max":0,"o":"m 205 212 l 387 387 l 563 212 l 629 278 l 453 461 l 629 636 l 563 709 l 380 526 l 205 702 l 139 636 l 314 461 l 132 278 z "},"=":{"ha":877,"x_min":0,"x_max":0,"o":"m 132 541 l 746 541 l 746 629 l 132 629 z m 132 285 l 746 285 l 746 373 l 132 373 z "},">":{"ha":906,"x_min":0,"x_max":0,"o":"m 132 161 l 775 461 l 775 563 l 132 870 l 132 753 l 658 512 l 132 270 z "},"<":{"ha":906,"x_min":0,"x_max":0,"o":"m 775 161 l 775 270 l 249 512 l 775 753 l 775 870 l 132 563 l 132 461 z "},"~":{"ha":877,"x_min":0,"x_max":0,"o":"m 541 307 b 746 439 643 307 746 439 l 680 482 b 541 395 680 482 614 395 b 336 497 477 395 439 497 b 132 365 234 497 132 365 l 197 322 b 336 409 197 322 263 409 b 541 307 401 409 439 307 z "},"^":{"ha":643,"x_min":0,"x_max":0,"o":"m 132 716 l 227 724 l 322 958 l 417 724 l 512 716 l 358 1023 l 285 1023 z "},"%":{"ha":1096,"x_min":0,"x_max":0,"o":"m 175 0 l 292 0 l 914 1023 l 797 1023 z m 132 811 b 307 599 130 692 211 602 b 482 811 404 602 484 692 b 307 1023 484 933 404 1020 b 132 811 211 1020 130 933 z m 219 811 b 307 936 219 868 238 933 b 395 811 376 933 396 868 b 307 680 396 756 376 683 b 219 811 238 683 219 756 z m 614 212 b 789 0 613 88 693 0 b 965 212 886 0 966 88 b 789 417 966 329 886 418 b 614 212 693 418 613 329 z m 702 212 b 789 329 702 265 721 329 b 877 212 858 329 879 265 b 789 80 879 152 858 80 b 702 212 721 80 702 152 z "},"`":{"ha":504,"x_min":0,"x_max":0,"o":""}}}
